<svg width="800" height="800" viewBox="0 0 800 800" fill="none" xmlns="http://www.w3.org/2000/svg">
<path fill-rule="evenodd" clip-rule="evenodd" d="M83.3335 633.333C55.7192 633.333 33.3335 610.947 33.3335 583.333V216.667C33.3335 189.052 55.7192 166.667 83.3335 166.667H266.667C433.333 166.667 433.333 383.333 333.333 383.333C433.333 383.333 466.667 633.333 266.667 633.333H83.3335ZM150 366.667C140.795 366.667 133.333 359.203 133.333 350V250C133.333 240.795 140.795 233.333 150 233.333H233.333C233.333 233.333 300 233.333 300 300C300 366.667 233.333 366.667 233.333 366.667H150ZM150 433.333C140.795 433.333 133.333 440.797 133.333 450V550C133.333 559.203 140.795 566.667 150 566.667H266.667C266.667 566.667 316.667 566.667 316.667 500C316.667 433.333 266.667 433.333 266.667 433.333H150Z" fill="#9B8895"/>
<path fill-rule="evenodd" clip-rule="evenodd" d="M716.633 466.78C744.263 466.78 767.373 443.997 761.74 416.95C720.217 217.629 430.427 236.029 433.333 466.78C435.55 642.54 681.147 698.903 753.46 539.66C764.95 514.36 739.157 499.99 717.907 499.99C699.02 499.99 684.377 517.41 672.31 531.94C637.573 573.773 532.093 570.737 518.163 483.807C516.683 474.583 524.347 466.78 533.687 466.78H716.633ZM527.28 399.99C522.367 399.99 519.193 394.843 521.817 390.69C557.137 334.747 642.047 335.35 677.993 390.63C680.69 394.78 677.523 399.99 672.573 399.99H527.28Z" fill="#9B8895"/>
<path d="M533.333 200C514.923 200 500 214.924 500 233.333C500 251.743 514.923 266.667 533.333 266.667H666.667C685.077 266.667 700 251.743 700 233.333C700 214.924 685.077 200 666.667 200H533.333Z" fill="#9B8895"/>
</svg>
