<svg width="800" height="800" viewBox="0 0 800 800" fill="none" xmlns="http://www.w3.org/2000/svg">
<path d="M347.258 450.789C346.069 453.914 344.506 456.613 342.571 458.868C340.653 461.158 338.309 462.934 335.54 464.212C332.77 465.49 329.379 466.112 325.419 466.112C319.862 466.112 315.263 464.904 311.57 462.508C307.877 460.075 304.93 456.897 302.728 452.902C300.526 448.942 298.928 444.433 297.934 439.479C296.922 434.525 296.442 429.465 296.442 424.351C296.442 419.22 296.922 414.195 297.934 409.206C298.928 404.217 300.526 399.743 302.728 395.783C304.93 391.788 307.877 388.61 311.57 386.178C315.263 383.745 319.879 382.573 325.419 382.573C330.231 382.573 334.19 383.479 337.244 385.308C340.298 387.172 342.748 389.302 344.595 391.717C346.441 394.15 347.72 396.564 348.43 399.068C349.14 401.536 349.637 403.507 349.921 404.927H395.517C393.528 385.751 386.817 370.944 375.365 360.503C363.93 350.063 347.702 344.754 326.697 344.612C314.908 344.612 304.273 346.512 294.845 350.365C285.399 354.183 277.302 359.598 270.555 366.558C263.808 373.518 258.624 381.881 255.002 391.699C251.38 401.483 249.551 412.384 249.551 424.298C249.551 435.502 251.273 446.013 254.664 455.725C258.073 465.473 263.098 473.853 269.703 480.973C276.308 488.093 284.351 493.704 293.868 497.823C303.385 501.907 314.322 504.002 326.697 504.002C337.777 504.002 347.649 502.137 356.313 498.462C364.96 494.751 372.24 489.904 378.135 483.867C384.029 477.83 388.504 471.03 391.558 463.52C394.611 456.027 396.156 448.392 396.156 440.74H350.117C349.424 444.291 348.483 447.682 347.258 450.789Z" fill="white"/>
<path d="M472.646 440.544H472.22L447.291 348.288H399.991L445.374 500.415H497.787L545.318 348.288H497.148L472.646 440.544Z" fill="white"/>
<path d="M593.577 1.52588e-05H91.9546V800H708.045V110.988L593.577 1.52588e-05ZM654.779 746.716H145.22V53.2659H566.127V137.781H654.762L654.779 746.716Z" fill="white"/>
</svg>
