<svg width="126" height="20" viewBox="0 0 126 20" fill="none" xmlns="http://www.w3.org/2000/svg">
<path d="M0.996094 19V16.9492L2.63672 16.5977V8.73438L0.820312 8.38281V6.32031H5.82422L5.95312 7.89062L5.97656 8.17188C6.28906 7.48438 6.67578 6.96484 7.13672 6.61328C7.59766 6.26172 8.14844 6.08594 8.78906 6.08594C8.99219 6.08594 9.21484 6.10547 9.45703 6.14453C9.69922 6.17578 9.91406 6.21875 10.1016 6.27344L9.73828 9.42578L8.03906 9.33203C7.55469 9.30859 7.16016 9.39062 6.85547 9.57812C6.55859 9.76562 6.29297 10.0352 6.05859 10.3867V16.5977L7.69922 16.9492V19H0.996094ZM10.3477 19V16.9492L12 16.5977V3.13281L10.1719 2.78125V0.71875H15.4102V16.5977L16.8867 16.9492V19H10.3477ZM18.4219 19V17.0547L19.3828 16.832L19.3594 16.7852L16.8516 13.375L19.0312 11.1367L23.1914 16.5859L24.7617 16.9492V19H18.4219ZM15.0469 15.5312L13.4062 13.6211L18.9141 8.58203L18.9375 8.54688L17.6367 8.35938V6.32031H24.2344V8.38281L22.5938 8.79297L15.0469 15.5312ZM26.7539 13.0234V10.3867H33.3633V13.0234H26.7539Z" fill="black"/>
<path d="M35.4141 19V16.9492L37.0664 16.5977V8.73438L35.2383 8.38281V6.32031H40.4883V16.5977L42.1289 16.9492V19H35.4141ZM36.9492 3.63672V0.71875H40.4883V3.63672H36.9492ZM43.1484 19V16.9492L44.7891 16.5977V8.73438L42.9727 8.38281V6.32031H47.9766L48.1289 8.13672C48.5508 7.48828 49.0703 6.98438 49.6875 6.625C50.3125 6.26562 51.0234 6.08594 51.8203 6.08594C53.0781 6.08594 54.0625 6.48828 54.7734 7.29297C55.4844 8.09766 55.8398 9.35938 55.8398 11.0781V16.5977L57.4805 16.9492V19H50.9414V16.9492L52.4062 16.5977V11.0898C52.4062 10.2383 52.2383 9.63672 51.9023 9.28516C51.5664 8.92578 51.0664 8.74609 50.4023 8.74609C49.9102 8.74609 49.4805 8.85156 49.1133 9.0625C48.7539 9.26562 48.4531 9.55859 48.2109 9.94141V16.5977L49.5938 16.9492V19H43.1484ZM63.1641 19.2461C61.9844 19.2461 61.0742 18.9219 60.4336 18.2734C59.8008 17.625 59.4844 16.5977 59.4844 15.1914V8.72266H57.7383V6.32031H59.4844V3.21484H62.8945V6.32031H65.2266V8.72266H62.8945V15.1797C62.8945 15.6719 62.9961 16.0234 63.1992 16.2344C63.4102 16.4453 63.6953 16.5508 64.0547 16.5508C64.25 16.5508 64.4531 16.5391 64.6641 16.5156C64.8828 16.4844 65.0703 16.4531 65.2266 16.4219L65.5195 18.8945C65.168 18.9961 64.7852 19.0781 64.3711 19.1406C63.9648 19.2109 63.5625 19.2461 63.1641 19.2461ZM67.0664 19V16.9492L68.707 16.5977V8.73438L66.8906 8.38281V6.32031H71.8945L72.0234 7.89062L72.0469 8.17188C72.3594 7.48438 72.7461 6.96484 73.207 6.61328C73.668 6.26172 74.2188 6.08594 74.8594 6.08594C75.0625 6.08594 75.2852 6.10547 75.5273 6.14453C75.7695 6.17578 75.9844 6.21875 76.1719 6.27344L75.8086 9.42578L74.1094 9.33203C73.625 9.30859 73.2305 9.39062 72.9258 9.57812C72.6289 9.76562 72.3633 10.0352 72.1289 10.3867V16.5977L73.7695 16.9492V19H67.0664ZM81.1992 19.2461C79.9414 19.2461 78.9414 18.9102 78.1992 18.2383C77.457 17.5586 77.0859 16.6367 77.0859 15.4727C77.0859 14.6758 77.3008 13.9766 77.7305 13.375C78.168 12.7734 78.8086 12.3008 79.6523 11.957C80.5039 11.6133 81.5508 11.4414 82.793 11.4414H84.4688V10.5039C84.4688 9.89453 84.2891 9.40234 83.9297 9.02734C83.5781 8.64453 83.0469 8.45312 82.3359 8.45312C81.9688 8.45312 81.6406 8.5 81.3516 8.59375C81.0625 8.67969 80.7969 8.80469 80.5547 8.96875L80.2852 10.6445H77.8242L77.7773 7.35156C78.4414 6.97656 79.1602 6.67188 79.9336 6.4375C80.707 6.20312 81.5703 6.08594 82.5234 6.08594C84.1797 6.08594 85.4883 6.47266 86.4492 7.24609C87.4102 8.01172 87.8906 9.10938 87.8906 10.5391V15.7656C87.8906 15.9375 87.8906 16.1094 87.8906 16.2812C87.8984 16.4453 87.9141 16.6055 87.9375 16.7617L89.2617 16.9492V19H85.0195C84.9336 18.7812 84.8477 18.5469 84.7617 18.2969C84.6758 18.0469 84.6133 17.7969 84.5742 17.5469C84.168 18.0625 83.6875 18.4766 83.1328 18.7891C82.5859 19.0938 81.9414 19.2461 81.1992 19.2461ZM82.1133 16.7148C82.5898 16.7148 83.043 16.6094 83.4727 16.3984C83.9023 16.1797 84.2344 15.8945 84.4688 15.543V13.5391H82.7812C82.0312 13.5391 81.4609 13.7109 81.0703 14.0547C80.6875 14.3984 80.4961 14.8125 80.4961 15.2969C80.4961 15.75 80.6367 16.1016 80.918 16.3516C81.207 16.5938 81.6055 16.7148 82.1133 16.7148ZM90.3516 19V16.9492L91.9922 16.5977V8.73438L90.1758 8.38281V6.32031H95.1797L95.332 8.13672C95.7539 7.48828 96.2734 6.98438 96.8906 6.625C97.5156 6.26562 98.2266 6.08594 99.0234 6.08594C100.281 6.08594 101.266 6.48828 101.977 7.29297C102.688 8.09766 103.043 9.35938 103.043 11.0781V16.5977L104.684 16.9492V19H98.1445V16.9492L99.6094 16.5977V11.0898C99.6094 10.2383 99.4414 9.63672 99.1055 9.28516C98.7695 8.92578 98.2695 8.74609 97.6055 8.74609C97.1133 8.74609 96.6836 8.85156 96.3164 9.0625C95.957 9.26562 95.6562 9.55859 95.4141 9.94141V16.5977L96.7969 16.9492V19H90.3516ZM111.738 19.2461C110.527 19.2461 109.469 18.9805 108.562 18.4492C107.656 17.9102 106.953 17.1719 106.453 16.2344C105.961 15.2969 105.715 14.2266 105.715 13.0234V12.5547C105.715 11.2969 105.949 10.1836 106.418 9.21484C106.887 8.23828 107.547 7.47266 108.398 6.91797C109.258 6.35547 110.27 6.07812 111.434 6.08594C112.582 6.08594 113.547 6.3125 114.328 6.76562C115.109 7.21875 115.703 7.87109 116.109 8.72266C116.516 9.57422 116.719 10.6055 116.719 11.8164V13.6797H109.266L109.242 13.75C109.289 14.3047 109.426 14.8008 109.652 15.2383C109.887 15.668 110.215 16.0078 110.637 16.2578C111.059 16.5 111.57 16.6211 112.172 16.6211C112.797 16.6211 113.379 16.543 113.918 16.3867C114.465 16.2227 114.996 15.9844 115.512 15.6719L116.438 17.7812C115.914 18.2031 115.254 18.5547 114.457 18.8359C113.668 19.1094 112.762 19.2461 111.738 19.2461ZM109.289 11.418H113.52V11.1133C113.52 10.5977 113.449 10.1562 113.309 9.78906C113.176 9.41406 112.957 9.125 112.652 8.92188C112.355 8.71875 111.969 8.61719 111.492 8.61719C111.039 8.61719 110.656 8.73828 110.344 8.98047C110.031 9.21484 109.785 9.53906 109.605 9.95312C109.434 10.3672 109.316 10.8359 109.254 11.3594L109.289 11.418ZM123.281 19.2461C122.102 19.2461 121.191 18.9219 120.551 18.2734C119.918 17.625 119.602 16.5977 119.602 15.1914V8.72266H117.855V6.32031H119.602V3.21484H123.012V6.32031H125.344V8.72266H123.012V15.1797C123.012 15.6719 123.113 16.0234 123.316 16.2344C123.527 16.4453 123.812 16.5508 124.172 16.5508C124.367 16.5508 124.57 16.5391 124.781 16.5156C125 16.4844 125.188 16.4531 125.344 16.4219L125.637 18.8945C125.285 18.9961 124.902 19.0781 124.488 19.1406C124.082 19.2109 123.68 19.2461 123.281 19.2461Z" fill="#FF3737"/>
</svg>
